<svg width="200" height="60" viewBox="0 0 200 60" fill="none" xmlns="http://www.w3.org/2000/svg">
  <path d="M40 10H60C65.5228 10 70 14.4772 70 20V40C70 45.5228 65.5228 50 60 50H40C34.4772 50 30 45.5228 30 40V20C30 14.4772 34.4772 10 40 10Z" fill="#8368A8"/>
  <path d="M50 20C44.4772 20 40 24.4772 40 30C40 35.5228 44.4772 40 50 40C55.5228 40 60 35.5228 60 30C60 24.4772 55.5228 20 50 20Z" fill="white"/>
  <text x="80" y="36" font-family="Poppins, sans-serif" font-size="18" font-weight="600" fill="#333333">The Friendly Couch</text>
</svg>
